<svg xmlns="http://www.w3.org/2000/svg" viewBox="0 0 1600 1200" width="500px" height="450px">
  <g transform="translate(853.0 232.0) rotate(30.223699459304154 72.5 77.0) scale(0.4740111147433802 0.4764851485148515)">
    <svg width="305.9" height="323.2" viewBox="0 0 305.9 323.2">
      <path d="M118.8 14.8 81.1 37.3c-8.5 5.1-13.2 15.4-13.6 27.4-.4 15-3.4 37.5-24.7 50.2 0 0-.1 0-.1.1l-26 15.5c-11 6.6-14.5 20.8-8 31.7l53.9 90.1c9.9 16.6 22.3 15.7 34.9 8.1l170.9-102.1c15-9 17.4-15.8 9.4-29.2-16.7-28-34.4-55.7-56.4-90.8C215.5 28.9 211.3 23 197 26c-28.7 6-40.7-8.2-52.7-13.2-8.3-3.4-17.8-2.7-25.5 2z" fill="#5b2448" />
      <path d="M287.8 172.8 105 282c-4 2.4-12.1 5.6-20.9 4.2-1.6-.2-3.2-.7-4.9-1.2-5.9-2.1-11.8-6.6-16.8-15.1L4.2 167.2c-8.5-14.2-3.3-27 8.6-34.1L69 99.5l125.8-75.2 101.3 94.1c10.4 17.4 18.6 38.3-8.3 54.4z" fill="#5b2448" />
      <path d="m98.1 250.4-14 35.9c-1.6-.2-3.2-.7-4.9-1.2l14.2-36.5z" fill="#fff" />
      <path d="M27 136.3c-6.9 0-12.5-5.6-12.5-12.5 0-3.1 1.1-6.1 3.2-8.4 1.4-1.5 14.1-15.2 32.4-19.3 6.7-1.6 13.5 2.6 15 9.3 1.6 6.7-2.6 13.5-9.3 15h-.2c-10.7 2.4-19.3 11.6-19.4 11.7-2.3 2.7-5.6 4.2-9.2 4.2z" fill="#5b2448" />
      <path d="m286.7 147.7-139.1 83.1-4.3 2.6-27.5 16.5c-12.7 7.6-25 8.5-34.9-8.1L27 151.6c-6.6-11-3-25.2 8-31.7l26-15.5h.1c1.3-.8 2.5-1.6 3.7-2.4 1.4-1 2.7-2.1 3.9-3.2 14.5-13 16.8-31.6 17.1-44.6.3-12 5.1-22.3 13.6-27.4l37.7-22.5c7.7-4.6 17.2-5.3 25.5-1.9 12.1 5 24 19.2 52.7 13.2 14.3-3 18.5 2.9 24.4 12.2 22.1 35.1 39.7 62.9 56.4 90.8 8 13.3 5.7 20.1-9.4 29.1z" fill="#9b3c82" />
      <path d="m147.6 230.8-4.3 2.6-78.5-131.6c1.4-1 2.7-2.1 3.9-3.2z" fill="#5b2448" />
      <path d="m115.3 40.7 30.3-18.1c4.3-2.6 9.9-1.2 12.4 3.1l.1.2c2.6 4.3 1.2 9.9-3.1 12.4l-30.3 18.1c-4.3 2.6-9.9 1.2-12.4-3.1l-.1-.2c-2.6-4.2-1.2-9.8 3.1-12.4zm154.3 79.2-3.6 2.7-17.1 12.5-27.6 20.3-.1.1-.4.3c-1.4 1-2.8 2-4.3 2.8-25.9 15.5-59.3 7.6-75.7-17.7-16.7-26-9.2-60.5 16.7-77.2L182.8 45l18.8-13.8z" fill="#ffcf2d" />
      <path d="M235.4 131.7c-30.9 0-55.9-25-56-55.8 0-17.6 8.3-34.1 22.2-44.6L182.8 45c-5.3 9-8.3 19.5-8.3 30.8 0 33.6 27.3 60.8 60.9 60.8 4.6 0 9.2-.5 13.5-1.5l17.1-12.5c-8.8 5.7-19.3 9-30.6 9.1z" fill="#9b3c82" />
      <circle cx="235.3" cy="75.8" fill="#ffcf2d" r="55.9" />
      <path d="M274.7 75.8c0 21.8-17.6 39.4-39.4 39.4-1.1 0-2.3 0-3.4-.1-1.7-.1-3.4-.4-5.1-.8-3.9-.8-7.6-2.3-11-4.2-1.5-.8-2.9-1.8-4.3-2.8-9.5-7.2-15.7-18.6-15.7-31.4 0-21.8 17.6-39.4 39.4-39.4 1.2 0 2.4 0 3.5.2 1.7.2 3.4.4 5.1.8 3.9.9 7.6 2.3 11 4.3 1.5.9 2.9 1.8 4.3 2.8 9.5 7 15.6 18.4 15.6 31.2z" fill="#66b0f0" />
      <g fill="#fff">
        <path d="m238.9 36.5-27.3 70.7c1.4 1 2.8 2 4.3 2.8L244 37.3zm20.3 7.9L231.9 115l-5-.8 28-72.6z" />
      </g>
    </svg>
  </g>
  <g transform="translate(1046.0 267.0) rotate(-18.447223826266406 77.5 40.0) scale(0.4087552742616034 0.4085801838610827)">
    <svg width="379.2" height="195.8" viewBox="0 0 379.2 195.8">
      <path d="M348 85.4c8.9-7.8 12.9-15.1 11.2-21.2-3.6-12.6-35.7-30-90-38.7-59.7-9.5-129.4-6.3-191.3 8.8-5.3 1.2-10.5-2-11.8-7.3-1.2-5.2 1.9-10.4 7.1-11.7 64.3-15.7 136.8-19 199-9.1 27.5 4.4 51.7 11.2 69.9 19.7 10.4 4.9 18.7 10.2 24.8 15.9 10.4 16.8-.7 30.1-18.9 43.6z" fill="#9b3c82" />
      <path d="M330.5 120.1c-16.9 8.7-34.4 16-52.4 21.8-1.4.4-2.9.6-4.4.3-5.3-.8-9-5.8-8.2-11.1.5-3.7 3.2-6.8 6.7-7.9.1 0 6.6-2.1 15.9-5.7 11.4-4.3 22.6-9.3 33.5-14.9 11.2-5.9 20-11.7 26.4-17.3 18.2-13.5 29.3-26.8 18.8-43.6 5.7 5.4 9.4 11 11.1 17.1 6.1 21-9.9 41.6-47.4 61.3z" fill="#5b2448" />
      <path d="M278.8 59.3c-24-4.4-58.8-10.1-90.6-20.4C152.5 28.5 119.8 18.7 95.1 6c-32.1-16.6-66 5-74.7 23.5C15.9 39.1 59 42.8 57 50.2c-10 37.3 6 59.4 33.7 71 21.5 9.1 43.4 17.1 65.7 24 31.3 9.4 58.2 27 81.4 29.3l-9.2 17.8s23-8.2 39.9-22.2c10.1-8.4 13.7-17.7 17-26.3 4.6-12.1 10.9-37.3 13.3-50.2 3.4-17.8-1.6-30.9-20-34.3z" fill="#ffcf2d" />
      <path d="M252.6 164.8c-6.3 15.8-16.5 31.1-44.2 31-25.1-.1-54.1-20.9-88.5-31.8-22.8-7.4-45.2-16-67.1-25.7-28.2-12.4-44.2-35.4-33.3-73.5 2.2-7.5-6.2-21.7-1.6-31.6 10.2-22.2 30.4-21.3 42-15.9 25.8 12.1 58 26.9 94.5 38.2 32.4 11.2 68.1 17.6 92.7 22.6 18.8 3.8 23.7 17.4 20 35.6-2.7 13-9.6 38.8-14.5 51.1z" fill="#5b2448" />
      <path d="M236.5 173.3c-6.3 15.8-17.6 25-36.1 21.9-24.7-4.1-62.2-11.9-96.5-22.8-22.8-7.4-45.2-16-67.1-25.7C8.5 134.3-7.5 111.4 3.5 73.2c2.2-7.5 6.4-20.6 10.1-30.9 6.7-18.8 18.6-22.1 30.2-16.6 25.8 12.1 58 26.9 94.5 38.2C170.8 75 206.4 81.5 231 86.4c18.8 3.8 23.7 17.4 20 35.6-2.7 13.2-9.6 38.9-14.5 51.3z" fill="#66b0f0" />
      <g fill="#fff">
        <path d="M191.9 78.4 45.5 148.6c-.6.3-1 .8-1.3 1.4 1.7.8 3.5 1.5 5.2 2.2l150.4-72.1c-2.5-.5-5.2-1.1-7.9-1.7zm47.5 10.8L80.9 164.6l6.6 2.4 156.8-74.6c-1.4-1.2-3-2.3-4.9-3.2z" />
      </g>
    </svg>
  </g>
  <g transform="translate(1242.0 260.0) rotate(113.38445268688322 55.0 56.5) scale(0.44534412955465585 0.44358780094291844)">
    <svg width="247" height="254.741" viewBox="0 0 247 254.741">
      <path d="m22 1.741 102 253h123L144.331 14.552A23.976 23.976 0 0 0 121.9 0z" fill="#ffcf2d" />
      <path d="m1.126 20.189 102.325 234.552H228L124.2 14.929A24.91 24.91 0 0 0 100.9.01L13.415 1.415A13.464 13.464 0 0 0 1.126 20.189z" fill="#66b0f0" />
      <path d="M60.659 56.241H35a10.885 10.885 0 0 1-10.057-6.683L13.879 23.223a6.659 6.659 0 0 1 6.011-9.281l26.71-.434h.168a10.063 10.063 0 0 1 9.283 6.129l11.11 26.893a7.029 7.029 0 0 1-6.5 9.712zm-13.9-37.734h-.084l-26.7.435a1.657 1.657 0 0 0-1.5 2.313l.008.021 11.07 26.345A5.9 5.9 0 0 0 35 51.241h25.659a2.028 2.028 0 0 0 1.876-2.8l-11.1-26.864a5.07 5.07 0 0 0-4.674-3.07z" fill="#fff" />
    </svg>
  </g>
  <g transform="translate(978.0 535.0) rotate(0.0 318.0 166.5) translate(0.0 0.0) scale(0.7005176781583875 0.701495681483042)">
    <svg width="115.629" height="471.849" viewBox="0 0 115.629 471.849">
      <path d="M907.9 473H553.7l55.4-374.8h243.4z" fill="#66B0F0" />
      <path d="M907.9 473H561.7c50-1.1 317.1-23.4 290.8-374.8z" fill="#649FE3" />
      <path d="M677.3 132.6c-1.6 0-2.9-1.2-3-2.8-.7-14.9-.3-29.8 1.2-44.6 3.3-32.7 11.5-56.4 24.3-70.4C708.4 5.3 719 .4 731.2 0h.2c12.2.4 22.8 5.3 31.3 14.7 12.8 14.1 21 37.8 24.3 70.4 1.5 14.8 1.9 29.7 1.2 44.6-.1 1.7-1.5 2.9-3.2 2.8s-2.9-1.5-2.8-3.2c0-.8 4.6-79.2-24-110.6-7.4-8.1-16.4-12.4-27-12.7-10.5.4-19.6 4.6-27 12.7-28.6 31.5-24.1 109.9-24 110.7.1 1.7-1.2 3.1-2.8 3.2h-.1z" fill="#9b3c82" />
      <path d="M236.4 177.7h317.3v295.4H236.4z" fill="#ffcf2d" />
      <path d="M553.7 178.5V473H236.4c44.3-1.5 82.5-9.1 115.3-21.1 34.6-12.6 63.4-30 87.2-49.9 94.4-79 111.9-198.1 114.4-220 .3-2.2.4-3.5.4-3.5z" fill="#ffbd11" />
      <path d="M351.7 177.7h87.2v295.4h-87.2z" fill="#fff" />
      <path d="M236.4 176h317.3v6H236.4z" fill="#ffcf2d" />
      <path d="M316.4 409.4c1 0 1.8-.8 1.8-1.8 0-.4-.1-.8-.4-1.1l-10.7-13.8-11.6-14.9c-.6-.8-1.8-.9-2.6-.3l-.3.3-11.6 14.9-10.7 13.8c-.6.8-.5 2 .3 2.6.3.2.7.4 1.1.4h7.6c1 0 1.8.8 1.8 1.8V447c0 1 .8 1.8 1.8 1.8H305c1 0 1.8-.8 1.8-1.8v-35.7c0-1 .8-1.8 1.8-1.8z" fill="#5b2448" />
      <path d="M29.7 145.3 0 473h116L90.3 145.3s-32.2 25.5-60.6 0z" fill="#66B0F0" />
      <g fill="#9b3c82">
        <path d="M25.7 192.5h-.3c-1.7-.1-2.9-1.6-2.7-3.2L34.5 50.8c.2-1.6 1.6-2.9 3.3-2.7 1.6.2 2.8 1.6 2.7 3.2L28.7 189.7c-.2 1.6-1.5 2.8-3 2.8zm68.5 1c-1.6 0-2.9-1.2-3-2.8L79.8 52.3c-.1-1.7 1.1-3.1 2.7-3.2 1.7-.1 3.1 1.1 3.2 2.7l11.4 138.4c.1 1.7-1.1 3.1-2.7 3.2 0 .1-.1.1-.2.1zM57.5 456c-13.1 0-25.6-5.8-35.3-16.4-1.1-1.2-1-3.1.2-4.2s3.1-1 4.2.2c8.6 9.5 19.8 14.6 31.4 14.5 11.6-.2 22.6-5.7 31-15.5 1.1-1.3 3-1.4 4.2-.3 1.3 1.1 1.4 3 .3 4.2-9.5 11.2-22.1 17.4-35.5 17.6-.1-.1-.3-.1-.5-.1z" />
      </g>
      <path d="m241.3 146.3-.6 40.7-.2 13-.1 6.3-3.7 266.7H116l66.7-328.7c.4.4.7.7 1.1 1 25.8 23.6 52.5 4.8 56.8 1.4.5-.2.7-.4.7-.4z" fill="#66b0f0" />
      <path d="M239.1 194.6h-.1c-1.7-.1-2.9-1.5-2.9-3.1l5.1-138.8c.1-1.7 1.5-3 3.1-2.9 1.7.1 3 1.5 2.9 3.1l-5.1 138.8c-.1 1.7-1.4 2.9-3 2.9zm-63.4-6.2c-.2 0-.4 0-.6-.1-1.6-.3-2.7-1.9-2.3-3.5l27.8-136.1c.3-1.6 1.9-2.7 3.5-2.3 1.6.3 2.7 1.9 2.3 3.5L178.6 186c-.2 1.4-1.5 2.4-2.9 2.4zM181 456c-.9 0-1.9 0-2.8-.1-13.4-.9-25.6-7.7-34.5-19.2-1-1.3-.8-3.2.5-4.2s3.2-.8 4.2.5c7.9 10.2 18.6 16.2 30.2 16.9s23-3.9 32.1-13c1.2-1.2 3.1-1.2 4.2-.1s1.2 3.1.1 4.2l-.1.1c-9.6 9.7-21.6 14.9-33.9 14.9z" fill="#9b3c82" />
    </svg>
  </g>
  <g transform="translate(982.0 889.0) rotate(0.0 100.0 93.5) scale(0.3454231433506045 0.34470046082949307)">
    <svg width="579" height="542.5" viewBox="0 0 579 542.5">
      <path d="M0 .5h579v539H0z" fill="#ffcf2d" />
      <path d="M579 2.1v537.4H0c93.6-3.1 172.1-21.4 238-49.4 38.9-16.5 73.4-36.5 104-58.7C558.1 274.3 579 2.1 579 2.1z" fill="#ffbd11" />
      <path d="M238 .5h104v539H238z" fill="#fff" />
      <path d="M0 0h579v6H0z" fill="#fff" />
      <g fill="#5b2448">
        <path d="M106 441.7c1.4 0 2.5-1.1 2.5-2.5 0-.6-.2-1.1-.5-1.5L93.4 419l-15.7-20.2c-.8-1.1-2.4-1.3-3.5-.4-.2.1-.3.3-.4.4L58.1 419l-14.6 18.7c-.8 1.1-.6 2.7.4 3.5.4.3 1 .5 1.5.5h10.3c1.4 0 2.5 1.1 2.5 2.5v48.4c0 1.4 1.1 2.5 2.5 2.5h30c1.4 0 2.5-1.1 2.5-2.5v-48.4c0-1.4 1.1-2.5 2.5-2.5zm78-10.9v-29.1c0-1.2-1-2.2-2.2-2.2h-45.3c-1.2 0-2.2 1-2.2 2.2v29.1c0 12.7 9.6 23.4 22.2 24.8v35.3h-18.1c-1.2 0-2.2 1-2.1 2.2 0 1.2 1 2.1 2.1 2.1h41.3c1.2 0 2.2-1 2.1-2.2 0-1.2-1-2.1-2.1-2.1H161v-35.2c13-1 23-11.8 23-24.9zm-45.3 0v-26.9h40.9v26.9c0 11.3-9.2 20.5-20.5 20.5s-20.4-9.2-20.4-20.5z" />
      </g>
    </svg>
  </g>
  <g transform="translate(879.0 465.0) rotate(0.0 384.0 201.0) translate(0.0 0.0) scale(0.8459081396629585 0.8468506425110597)">
    <svg width="113.487" height="473.519" viewBox="0 0 113.487 473.519">
      <path d="M907.9 473H553.7l55.4-374.8h243.4z" fill="#f94f46" />
      <path d="M907.9 473H561.7c50-1.1 317.1-23.4 290.8-374.8z" fill="#649FE3" />
      <path d="M677.3 132.6c-1.6 0-2.9-1.2-3-2.8-.7-14.9-.3-29.8 1.2-44.6 3.3-32.7 11.5-56.4 24.3-70.4C708.4 5.3 719 .4 731.2 0h.2c12.2.4 22.8 5.3 31.3 14.7 12.8 14.1 21 37.8 24.3 70.4 1.5 14.8 1.9 29.7 1.2 44.6-.1 1.7-1.5 2.9-3.2 2.8s-2.9-1.5-2.8-3.2c0-.8 4.6-79.2-24-110.6-7.4-8.1-16.4-12.4-27-12.7-10.5.4-19.6 4.6-27 12.7-28.6 31.5-24.1 109.9-24 110.7.1 1.7-1.2 3.1-2.8 3.2h-.1z" fill="#9b3c82" />
      <path d="M236.4 177.7h317.3v295.4H236.4z" fill="#ffcf2d" />
      <path d="M553.7 178.5V473H236.4c44.3-1.5 82.5-9.1 115.3-21.1 34.6-12.6 63.4-30 87.2-49.9 94.4-79 111.9-198.1 114.4-220 .3-2.2.4-3.5.4-3.5z" fill="#ffbd11" />
      <path d="M351.7 177.7h87.2v295.4h-87.2z" fill="#fff" />
      <path d="M236.4 176h317.3v6H236.4z" fill="#ffcf2d" />
      <path d="M316.4 409.4c1 0 1.8-.8 1.8-1.8 0-.4-.1-.8-.4-1.1l-10.7-13.8-11.6-14.9c-.6-.8-1.8-.9-2.6-.3l-.3.3-11.6 14.9-10.7 13.8c-.6.8-.5 2 .3 2.6.3.2.7.4 1.1.4h7.6c1 0 1.8.8 1.8 1.8V447c0 1 .8 1.8 1.8 1.8H305c1 0 1.8-.8 1.8-1.8v-35.7c0-1 .8-1.8 1.8-1.8z" fill="#5b2448" />
      <path d="M29.7 145.3 0 473h116L90.3 145.3s-32.2 25.5-60.6 0z" fill="#f94f46" />
      <g fill="#9b3c82">
        <path d="M25.7 192.5h-.3c-1.7-.1-2.9-1.6-2.7-3.2L34.5 50.8c.2-1.6 1.6-2.9 3.3-2.7 1.6.2 2.8 1.6 2.7 3.2L28.7 189.7c-.2 1.6-1.5 2.8-3 2.8zm68.5 1c-1.6 0-2.9-1.2-3-2.8L79.8 52.3c-.1-1.7 1.1-3.1 2.7-3.2 1.7-.1 3.1 1.1 3.2 2.7l11.4 138.4c.1 1.7-1.1 3.1-2.7 3.2 0 .1-.1.1-.2.1zM57.5 456c-13.1 0-25.6-5.8-35.3-16.4-1.1-1.2-1-3.1.2-4.2s3.1-1 4.2.2c8.6 9.5 19.8 14.6 31.4 14.5 11.6-.2 22.6-5.7 31-15.5 1.1-1.3 3-1.4 4.2-.3 1.3 1.1 1.4 3 .3 4.2-9.5 11.2-22.1 17.4-35.5 17.6-.1-.1-.3-.1-.5-.1z" />
      </g>
      <path d="m241.3 146.3-.6 40.7-.2 13-.1 6.3-3.7 266.7H116l66.7-328.7c.4.4.7.7 1.1 1 25.8 23.6 52.5 4.8 56.8 1.4.5-.2.7-.4.7-.4z" fill="#66b0f0" />
      <path d="M239.1 194.6h-.1c-1.7-.1-2.9-1.5-2.9-3.1l5.1-138.8c.1-1.7 1.5-3 3.1-2.9 1.7.1 3 1.5 2.9 3.1l-5.1 138.8c-.1 1.7-1.4 2.9-3 2.9zm-63.4-6.2c-.2 0-.4 0-.6-.1-1.6-.3-2.7-1.9-2.3-3.5l27.8-136.1c.3-1.6 1.9-2.7 3.5-2.3 1.6.3 2.7 1.9 2.3 3.5L178.6 186c-.2 1.4-1.5 2.4-2.9 2.4zM181 456c-.9 0-1.9 0-2.8-.1-13.4-.9-25.6-7.7-34.5-19.2-1-1.3-.8-3.2.5-4.2s3.2-.8 4.2.5c7.9 10.2 18.6 16.2 30.2 16.9s23-3.9 32.1-13c1.2-1.2 3.1-1.2 4.2-.1s1.2 3.1.1 4.2l-.1.1c-9.6 9.7-21.6 14.9-33.9 14.9z" fill="#9b3c82" />
    </svg>
  </g>
  <g transform="translate(731.0 -77.0) rotate(-89.99999999999997 168.0 508.5) translate(0.0 396.0548337581652) scale(0.43855985297803024 0.4396172520161011)">
    <svg width="766.144" height="1412.468" viewBox="0 900.908 766.144 1412.468">
      <path d="M579.644 113.586v150.29q-6.135-10.35-12.5-19.661c-95.39-139.719-228.86-109.569-349.5-47.339C106 254.465 27.454 224.976 2.1 212.026a3.873 3.873 0 0 1 .91-7.22c129.09-29.79 133.671-72.111 257.63-160.93 120.231-86.15 230.59-33.391 306.5 54.53q6.424 7.44 12.504 15.18z" fill="#f94f46" />
      <g fill="#ffcf2d">
        <path d="M579.644 113.586v150.29q-6.135-10.35-12.5-19.661V98.406q6.42 7.44 12.5 15.18z" />
        <path d="M766.144 2300.876a12.5 12.5 0 0 1-12.5 12.5h-348a12.5 12.5 0 0 1 0-25h161.5V244.215q6.375 9.315 12.5 19.661v-150.29q-6.075-7.742-12.5-15.18v-72.53a12.5 12.5 0 1 1 25 0v2262.5h161.5a12.5 12.5 0 0 1 12.5 12.5z" />
      </g>
    </svg>
  </g>
  <g transform="translate(988.0 106.0) rotate(0.0 126.0 50.0) scale(0.41002277904328016 0.4108463434675431)">
    <svg width="614.6" height="243.4" viewBox="0 0 614.6 243.4">
      <ellipse cx="13.2" cy="219.4" fill="#5b2448" rx="12.9" ry="21.6" transform="matrix(.9865 -.1638 .1638 .9865 -35.7501 5.1296)" />
      <path d="m196.5 142.6-177 60c-8 17 5 31 5 31l190-16z" fill="#9b3c82" />
      <path d="m366.5 223.6-27 .4c-37.4.5-102.1 1.4-117.6 1.6-1.9 0-3.6-.9-4.6-2.5-7.8-12.3-14.3-29.2-18-48.4-2.4-12-3.4-24.3-3-36.6.1-2.1 1.4-4 3.4-4.8l139.7-53.7z" fill="#ffcf2d" />
      <path d="M339.5 224c-26-50.4-23-112.4 0-144.4l27 144z" fill="#9b3c82" />
      <path d="M543.8 197.9c9.9 13.7 20.8 22.4 31.5 24-.6 0-171.9 6.5-199.1 7.6-2.3.1-4.5-.8-6.2-2.3-14.1-13.4-27-39.9-33.2-71.8-6.2-32.2-4.1-61.8 4.1-79.5.9-2 2.7-3.6 4.8-4.4L533.3 3.2c-22.2 13.2-31 61.5-20.2 117.2 6.1 31.7 17.5 59.1 30.7 77.5z" fill="#ffcf2d" />
      <ellipse cx="561.6" cy="111.1" fill="#9b3c82" rx="49.4" ry="112.7" transform="matrix(.9818 -.1902 .1902 .9818 -10.8739 108.8142)" />
      <g fill="#fff">
        <path d="M485.3 126.3c5.8 29.8 16.3 56.9 29.7 76.3 6.4 9.3 13.1 16.3 19.9 20.8 2.6-.1 5.1-.2 7.5-.3-8-3.7-16.2-11.4-24.1-22.8-13.1-18.9-23.4-45.5-29-74.7-5.7-29.3-6-57.8-1-80.2 3.2-14.2 8.3-24.9 14.8-31.2l-7.5 2.7c-4.8 6.8-8.7 16.1-11.2 27.6-5.2 22.9-4.9 52 .9 81.8zm-122.2 24.1c4.7 24.1 13.2 46.1 24 61.8 4.9 7.1 10 12.6 15.2 16.3 2.3-.1 4.8-.2 7.3-.3-6.4-3-12.9-9.2-19.2-18.3-10.5-15.2-18.8-36.6-23.4-60.2s-4.9-46.6-.8-64.6c2.7-11.9 7-20.6 12.5-25.6l-7.6 2.8c-3.8 5.5-6.8 12.9-8.8 22-4.2 18.4-3.9 42 .8 66.1zm-141.4-25.5-4.3 1.6c-1.7 14.2-.8 30.8 2.9 47.8 4.4 20.8 12 38.6 20.8 51 1.6 0 3.3 0 5.1-.1-9.3-12-17.5-30.5-22-51.7-3.7-17.4-4.6-34.4-2.5-48.6z" />
      </g>
      <ellipse cx="563.1" cy="110.4" fill="#66b0f0" rx="36.3" ry="90.9" transform="matrix(.9818 -.1902 .1902 .9818 -10.7184 109.0844)" />
      <path d="M583.7 106.5c-1 0-1.8-.7-2-1.6-.9-4.8-2-9.6-3.2-14.3-.3-1.1.4-2.2 1.4-2.4 1.1-.3 2.1.4 2.4 1.4 1.2 4.7 2.3 9.6 3.3 14.5.2 1.1-.5 2.1-1.6 2.3-.1.1-.2.1-.3.1zm-6.2-24.4c-.9 0-1.6-.6-1.9-1.4-6.1-19.3-14.4-35.6-23.4-45.8-.8-.8-.7-2.1.1-2.8.8-.8 2.1-.7 2.8.1l.1.1c9.4 10.6 18 27.4 24.3 47.2.3 1.1-.3 2.2-1.3 2.5-.3 0-.5.1-.7.1z" fill="#fff" />
    </svg>
  </g>
  <g transform="translate(1019.0 576.0) rotate(-28.633753985263844 158.0 117.0) scale(0.472488038277512 0.4720597135364132)">
    <svg width="668.8" height="495.7" viewBox="0 0 668.8 495.7">
      <g fill="#5b2448">
        <path d="M469.8 96.9c18.2 5.6 25.1 16.6 37 12.9 17.8-5.4 7.3-52.8-28-85.1-30.1-27.6-71.5-36.2-102.6-4.1C341.8 56 360 85.5 389.1 90.9c20.2 3.7 51.2-3.1 80.7 6zM215.5 404.2s-60.9 21.1-81.4 72.5c-17.8 44.6-61.7 2.8-36.6-42.6 25.7-46.5 56.4-69.3 56.4-69.3zm282-32.5s65.5 26.7 108.9 30.7c44 4.1 99.2-37.1 28.7-53.5-59.6-13.9-87.1-44.5-87.1-44.5z" />
      </g>
      <path d="M537.1 341c15.8 72.3 71.3 95.1 71.3 122.8 0 16.3-32 23.3-74.3 0-39.6-21.8-80.2-65.4-80.2-65.4-150.5 58.4-283.2-11.9-283.2-11.9-30.7 18.8-56.4 23.8-88.1 40.6-46.9 24.9-37.7 61.4-58.4 60.4-20.8-1-32.7-36.6-16.8-64.4 26-45.6 51.5-31.7 82.2-118.8 4.6-13 15.1-26.6 27.3-37.8 10.6-9.7 22.5-17.5 33.1-21.6 35.7-13.9 75.1-5.6 113.9-12.9 1-.2 2.1-.4 3.1-.6 45.7-9.1 72.4-28 99.6-48.7 11.2-8.4 21.6-17.7 31.4-27.8 10.6-10.9 20-22.9 28-35.9 27.1-44.8 55.5-76.1 89.6-69.7 32.1 6 52.1 44.3 58.5 67.5 11.6-35.2 29.1-56.1 43.1-50.4s13.2 57.8 2.4 126c-6.3 39.7-23 73.4-39.9 98.8-18 26.8-36 44.3-42.6 49.8z" fill="#ffcf2d" />
      <path d="M423.4 370.3c-1.1-.9-2.6-.8-3.5.3s-.8 2.6.3 3.5c.2.1 16.1 13.6 28.5 26.3 1.7-.6 3.6-1.3 5.3-2-12.8-13.3-30.5-27.9-30.6-28.1zM228.1 339c.8-1.1.5-2.7-.6-3.5s-2.7-.5-3.5.6c-9.4 13.6-21.9 30.4-53.3 50.4s1.8.9 5.2 2.5c28.9-19.1 43.1-36.6 52.2-50z" fill="#9b3c82" />
      <path d="M579.4 291.3c-17.7 26.7-35.7 44.2-42.3 49.7-108.7-41.8-164.3-145.6-170.7-158.2 11.2-8.4 21.6-17.7 31.4-27.8 53.6 95.1 181.6 136.3 181.6 136.3z" fill="#66b0f0" />
      <path d="M606.7 168.8c-1 2.2-2.4 4.2-4.2 5.9-1.7 1.6-3.7 3-5.9 4-6.5 3.3-14.2 3.5-20.9.6-2.2-1-4.2-2.3-6.1-3.9-3.7-3.1-6.1-7.5-6.9-12.3-.2-1.2.7-2.4 1.9-2.5 1-.1 2 .4 2.4 1.3v.1c1.4 3.3 3.7 6.2 6.6 8.4 2.9 2.1 6.2 3.4 9.8 3.9 3.6.4 7.2-.1 10.5-1.4 3.4-1.2 6.4-3.3 8.7-6.1l.1-.1c.7-1 2.2-1.2 3.1-.4 1 .5 1.3 1.6.9 2.5z" fill="#9b3c82" />
      <path d="M624.9 62.6c-2.4 9.3-7.8 16.3-14.1 15.3s-9.2-9.4-8.7-18.9c.4-8.5 5.3-16.7 14.1-15.3s11 9.8 8.7 18.9zM463 102.5c23.9-5.2 33.2-19.8 48.4-14.4 22.6 8 6.3 68.3-41.1 107.8-40.4 33.7-95 48.3-132.2-.9-41.5-54.7-7.9-89.5 19.7-93.1 23.6-3.1 85.2 5 105.2.6z" fill="#5b2448" />
      <ellipse cx="554.8" cy="114.4" fill="#5b2448" rx="13.4" ry="9.5" transform="matrix(.1562 -.9877 .9877 .1562 355.1944 644.5566)" />
      <path d="M171.7 241s-45.6 3-73.5-58.1c-5.9-12.9-16.4-16.4-16.9 4-.9 36 22.7 73.1 50.9 93.1z" fill="#ffcf2d" />
      <path d="M205.1 299.2c-41.4 11.3-81.9 2.2-88.2-32.6 10.6-9.7 22.5-17.5 33.1-21.6 35.7-13.9 75.1-5.6 113.9-12.9 1-.2 2.1-.4 3.1-.6.4 1 .8 2.1 1.1 3.1 6.5 24.4-21.7 53.3-63 64.6z" fill="#5b2448" />
    </svg>
  </g>
  <g transform="translate(1353.0 552.0) rotate(0.0 -347.0 292.0) scale(-0.3912283668752466 0.3919463087248322)">
    <svg width="1773.9" height="1490" viewBox="0 0 1773.9 1490">
      <path d="M1086.7 1351H168c-9.7 0-17.5-7.8-17.5-17.5s7.8-17.5 17.5-17.5h904.7l119.2-526.4c2.1-9.4 11.4-15.4 20.8-13.4 9.4 2.1 15.4 11.4 13.4 20.8 0 .1 0 .2-.1.3l-122.3 540c-1.8 8-8.8 13.7-17 13.7z" fill="#5b2448" />
      <circle cx="944" cy="1410" fill="#3fb1b5" r="80" />
      <circle cx="332" cy="1410" fill="#3fb1b5" r="80" />
      <path d="M1677.4 73.3c0-11 4.2-21 11-28.5l.1-.1-1.5-.5-10.5-3.8c-7 9.1-11.1 20.5-11.1 32.9v.3l10.7 3.8 1.5.6c.1-.1-.2-3.2-.2-4.7z" fill="#9b3c82" />
      <path d="M1763.4 73.3c0 24.2-19.6 43.7-43.7 43.7-22.8 0-41.5-17.4-43.5-39.6-.1-1.3-.2-2.7-.2-4.1 0-11.2 4.2-21.4 11.1-29.2 8-8.9 19.6-14.6 32.6-14.6 24.1 0 43.7 19.6 43.7 43.8z" fill="#ffcf2d" />
      <g fill="#3fb1b5">
        <path d="M1736.6 80.4c-3.2 9.1-13.2 13.9-22.3 10.7h-.1L1677.8 78l-1.5-.6-10.7-3.8-100.9-36.2-206.8 173.9-131.3 584.5-.5 2.1c-1.8 8-8.9 13.7-17.1 13.7-.7 0-1.3 0-2-.1-8.8-1-15.6-8.4-15.6-17.4 0-.8.1-1.6.2-2.4.1-.5.1-.9.2-1.4l3.1-13.7 51.8-230.5 7.9-35 45.2-201.2 7.9-35 17.3-77c.8-3.7 2.9-7.1 5.8-9.6L1549.7 4.1c4.8-4 11.3-5.2 17.2-3.1l109.7 39.3 10.5 3.8 1.5.5 37.3 13.4c9.1 3.2 13.9 13.2 10.7 22.4z" />
        <path d="M1205 811.5H136.4c-8.1 0-15.2-5.6-17-13.5L.5 296.5c-2.2-9.4 3.6-18.8 13-21.1 1.3-.3 2.7-.5 4-.5l1302.5-.1c9.7 0 17.5 7.8 17.5 17.5s-7.8 17.5-17.5 17.5l-1280.4.1 110.6 466.6H1205c9.7 0 17.5 7.8 17.5 17.5s-7.8 17.5-17.5 17.5z" />
        <path d="M1267.4 546H80c-9.7 0-17.5-7.8-17.5-17.5S70.3 511 80 511h1187.4c9.7 0 17.5 7.8 17.5 17.5s-7.9 17.5-17.5 17.5z" />
        <path d="M670 811.5c-9.7 0-17.5-7.8-17.5-17.5V297.2c0-9.7 7.8-17.5 17.5-17.5s17.5 7.8 17.5 17.5V794c0 9.7-7.8 17.5-17.5 17.5zm-273.9-1c-8.8 0-16.2-6.6-17.3-15.3l-64.1-500.7c-1.3-9.6 5.4-18.4 15-19.7s18.4 5.4 19.7 15v.2l64.1 500.7c1.2 9.6-5.6 18.4-15.2 19.6-.7.2-1.5.2-2.2.2zm551.1 0c-.8 0-1.5 0-2.3-.1-9.6-1.2-16.4-10-15.1-19.6l64.4-498.7c1.2-9.6 9.9-16.4 19.5-15.2s16.4 9.9 15.2 19.5v.2l-64.4 498.7c-1.1 8.7-8.5 15.2-17.3 15.2z" />
      </g>
    </svg>
  </g>
  <g transform="translate(62.0 44.0) rotate(0.0 376.0 544.0) scale(0.5275712080819419 0.5269275474622239)">
    <svg width="1425.4" height="2064.8" viewBox="0 0 1425.4 2064.8">
      <path d="M954.9 1076.9c29.3 7.9 65.4 26.7 68.3 41.6 1.6 7.8-18.8 15.8-70.3 13.9s-384.2-54.5-386.2-94.1c-2.6-52.4 294 13.3 388.2 38.6zm-351.6 658.6c-62.4-55.5-96.7-45.8-105-24.8-8.9 22.8-5.9 164.4 311.9 97 .1.1-135.6-8.8-206.9-72.2zm-368.1-302.3c-21.1-52.3-52.2-41.5-63.6-35.4-16.8 8.9-113.9 114.9 185.2 274.3 0 0-86.2-60.4-94.1-128.7s-27.5-110.2-27.5-110.2z" fill="#5b2448" />
      <path d="m810.3 1807.8-14.7 33.6-1.2 2.8-28.7 65.6-96.6 6.4-26.2-47c3-11.7 5.6-22.6 7.9-32.9.2-.9.4-1.7.6-2.6.6-2.7 1.2-5.4 1.7-8 .8-3.9 1.6-7.7 2.4-11.4 4.2-20.9 7.7-40.6 11.5-62.1.2-.9.3-1.9.5-2.8 4.2-23.5 9-49.3 16-81.1 9.3-42.6 126.8 139.5 126.8 139.5zm-453.5-135.7c-15.1 7.9-32.2 16.3-48.8 24.2-.7.3-1.5.7-2.2 1-35.6 17-67.7 31.3-69.8 32.2h-.1l-77.4-58.5 22.5-58.9c.3-.2.6-.4.9-.5 9.6-5.5 19.6-11.5 29.6-18 1.1-.7 2.1-1.4 3.2-2.1.8-.5 1.6-1.1 2.4-1.6 2.2-1.4 4.4-2.9 6.7-4.4 2.8-1.9 5.6-3.8 8.4-5.6 16.8-11.5 33.2-23.3 47.8-34.3.5-.4 1-.7 1.4-1.1 31.4-23.6 54.1-42.4 54.1-42.4s11.4 85.8 21.3 170z" fill="#f4ada2" />
      <path d="M356.8 1672.1c-51.5-16.8-121.8-76.3-133-86.5 2.8-1.9 5.6-3.8 8.4-5.6 16.8-11.5 33.2-23.3 47.8-34.3.5-.4 1-.7 1.4-1.1zm453.5 135.7c-61.2 21-151 18.1-157.1 17.8.8-3.9 1.6-7.7 2.4-11.4 4.2-20.9 7.7-40.6 11.5-62.1z" fill="#9b3c82" />
      <path d="M308 1696.3c-.7.3-1.5.7-2.2 1-35.6 17-67.7 31.3-69.8 32.2h-.1l-77.4-58.5 22.5-58.9c.3-.2.6-.4.9-.5 9.6-5.5 19.6-11.5 29.6-18 1.1-.7 2.1-1.4 3.2-2.1.8-.5 1.6-1.1 2.4-1.6z" fill="#66b0f0" />
      <path d="m194.1 1604.4 85.8 105.1c3-1.4 6.2-2.9 9.4-4.4l-86.6-105.9c-2.9 1.8-5.7 3.5-8.6 5.2z" fill="#fff" />
      <path d="m795.7 1841.4-1.2 2.8-28.7 65.6-96.6 6.4-26.2-47c3-11.7 5.6-22.6 7.9-32.9.2-.9.4-1.7.6-2.6z" fill="#66b0f0" />
      <path d="m789.3 1856.1-140.8-9.3c-.8 3.2-1.5 6.5-2.4 9.9l138.9 9.1zm-145.8 12.6s-47.5 123.8-59.9 192c0 0 226.4 4.6 301.6-1.7 40.8-3.4 60.3-18.7 69.7-29.7l-.1-.1c0-.1-.1-.2-.1-.3-2.2-5.2-25-56.2-99-93.5-11.5-5.8-48.6-22-91.3-27.1-29.2-3.5-54.1-2.2-72.8-8.4-23.9-7.9-34.8-31.7-48.1-31.2z" fill="#fff" />
      <path d="M643.9 1866.2c20.8 5 24.2 23.9 49.6 33.2 16.4 6 63.2 2.6 97.3 11.8 1.2.3 2.4.7 3.7 1 .3.1.7.2 1 .3 7.2 2 14.1 4.1 20.7 6.4 1.3.4 2.6.9 3.9 1.4 1.9.7 3.7 1.3 5.5 2 1.4.5 2.8 1.1 4.2 1.6 1.2.4 2.3.9 3.4 1.4l2.1.9c1.7.7 3.3 1.4 5 2.1h.1c.6.3 1.1.5 1.7.8 1.9.8 3.8 1.7 5.6 2.5l1.2.6c2.2 1.1 4.4 2.1 6.6 3.2 2.1 1 4.1 2.1 6.1 3.2.8.4 1.5.8 2.3 1.2 2.3 1.2 4.5 2.5 6.7 3.8l1.5.9 1.5.9c1 .6 1.9 1.2 2.9 1.7 1 .6 2 1.3 3 1.9.5.3 1 .6 1.4.9 3.3 2.1 6.5 4.3 9.5 6.5 1.3.9 2.6 1.9 3.8 2.8.8.6 1.7 1.2 2.5 1.9l1.2.9c1.3 1 2.6 2 3.8 3 .3.2.6.5.9.7 1.9 1.5 3.8 3.1 5.5 4.6.4.3.7.6 1.1.9.7.6 1.4 1.2 2 1.8.4.3.7.7 1.1 1 .7.6 1.3 1.2 2 1.8.3.3.7.6 1 .9s.6.6 1 .9.6.6 1 .9c.9.9 1.9 1.8 2.8 2.7l.9.9.9.9c.6.6 1.2 1.2 1.7 1.8.3.3.6.6.8.9.6.6 1.1 1.2 1.6 1.8l1.6 1.7c.5.6 1 1.1 1.5 1.7.3.3.6.6.8.9 1 1.1 1.9 2.2 2.8 3.2.5.6.9 1.1 1.4 1.6s.9 1.1 1.3 1.6.8 1.1 1.2 1.6c3.8 4.9 6.9 9.3 9.4 13.2l.6.9c-64.9 45.8-140.9 21.2-178.3 5.5-32.3-13.6-42.1 3.8-68.4-4.7-22-7.1-26.3-24.6-54.4-28-26.2-3.2-48.2 14-48.2 14s27.8-80 46.6-134.5z" fill="#5b2448" />
      <path d="M614.1 1965.9c-1.3 0-2.1-.1-2.2-.1-1.6-.2-2.8-1.6-2.7-3.3.2-1.6 1.6-2.8 3.3-2.7.2 0 17.4 1.4 39-13.7 4.8-3.4 8.7-6.4 12.2-9.1 13.4-10.3 20.8-16.1 47.8-19.5 1.6-.2 3.1 1 3.3 2.6s-1 3.1-2.6 3.3c-25.3 3.2-31.9 8.3-44.9 18.3-3.5 2.7-7.5 5.8-12.4 9.2-19.2 13.6-35.1 15-40.8 15z" fill="#fff" />
      <path d="M860.9 2042.9c-4.6 0-9.2-.2-14-.5-24.9-1.9-51.7-8.8-79.6-20.5-17-7.2-27.6-5.4-37.8-3.6-8.8 1.5-17.9 3-30.3-1-9.8-3.2-16.3-8.3-22.5-13.3-8.2-6.6-16-12.8-31.4-14.7-24.7-3-44.5 13.8-44.7 14-1.1.9-2.6.8-3.5-.3-.9-1-.8-2.6.2-3.5.9-.8 21.6-18.5 48.6-15.2 16.8 2 25.5 9 33.9 15.7 6.2 4.9 12 9.5 20.9 12.4 11.3 3.7 19.4 2.3 28 .8 10.9-1.9 22.2-3.8 40.6 3.9 27.4 11.5 53.7 18.3 78.1 20.2 37.1 2.8 70-5.7 97.8-25.4 1.2-.8 2.7-.5 3.5.7s.5 2.7-.7 3.5c-25.2 17.8-54.5 26.8-87.1 26.8z" fill="#5b2448" />
      <path d="M641.3 2047.9c-18.1 0-32.2-8.7-32.2-19.9s14.2-19.9 32.2-19.9 32.2 8.7 32.2 19.9-14.1 19.9-32.2 19.9zm0-34.8c-14.8 0-27.2 6.8-27.2 14.9s12.5 14.9 27.2 14.9 27.2-6.8 27.2-14.9-12.4-14.9-27.2-14.9z" fill="#6d2a53" />
      <path d="M743.6 2064.8c-79.8 0-158.8-1.6-160.1-1.6-1.4 0-2.5-1.2-2.4-2.6v-.4c12.3-67.7 59.6-191.2 60-192.4.5-1.3 1.9-1.9 3.2-1.4s1.9 1.9 1.4 3.2c-.5 1.2-46.3 120.9-59.2 188.7 26.9.5 228.9 4 298.4-1.7 37.4-3.1 57-16.5 67-27.7-4-9-27.8-56.2-97.4-91.2-.7-.3-1.4-.7-2.2-1.1-12.3-6.3-41.1-21-89.1-24.7-1.4-.1-2.4-1.3-2.4-2.6s1.3-2.4 2.6-2.4h.1c49 3.8 78.4 18.8 91 25.2.8.4 1.5.8 2.2 1.1 73.9 37.2 97.5 88.2 100.2 94.6 0 0 0 .1.1.1.1.1.1.3.1.4v.1c.3.9.2 1.8-.4 2.5-18.6 21.9-49 28.8-71.4 30.6-30.5 2.5-86.3 3.3-141.7 3.3z" fill="#5b2448" />
      <path d="M756 1976.4c-4.1 0-7.5-3.4-7.5-7.5 0-1.2.3-2.3.8-3.4.8-1.7 21.2-41.1 69.5-52.3 4-.9 8.1 1.6 9 5.6s-1.6 8.1-5.6 9c-41.3 9.6-59.4 44.2-59.6 44.5-1.2 2.5-3.8 4.1-6.6 4.1zm33.1 12.8c-4.1 0-7.5-3.4-7.5-7.5 0-1.2.3-2.3.8-3.4.8-1.6 21-40.4 68.7-51.5 4-1 8.1 1.5 9.1 5.5s-1.5 8.1-5.5 9.1h-.1c-40.7 9.5-58.6 43.3-58.7 43.7-1.4 2.5-4 4.1-6.8 4.1zm38.2 10.2c-4.1 0-7.5-3.4-7.5-7.5 0-1.2.3-2.4.9-3.5.8-1.4 19.2-35 62.8-44.6 4-.9 8 1.7 8.9 5.7s-1.7 8-5.7 8.9c-36.6 8-52.6 36.7-52.8 37-1.3 2.5-3.8 4-6.6 4z" fill="#ffcf2d" />
      <path d="M183.6 1619s-122.9 49.9-181.1 87.4c0 0 151.4 168.5 207.3 219.1 30.3 27.5 54.9 31.3 69.3 30.6l.1-.1c0-.1.1-.2.1-.3 2.3-5.1 23.9-56.7.6-136.2-3.6-12.4-17.1-50.5-42.6-85.2-17.4-23.7-35.3-41-43.6-58.9-10.5-22.8-.6-47-10.1-56.4z" fill="#fff" />
      <path d="M183.5 1611.7c10.6 18.6 1.4 40 12 64.9 6.8 16.1 41.3 47.9 57.9 79 .6 1.1 1.2 2.2 1.8 3.4.2.3.3.6.5.9 3.5 6.6 6.6 13.1 9.4 19.5.6 1.3 1.1 2.5 1.7 3.8.8 1.8 1.5 3.6 2.3 5.4.6 1.4 1.2 2.8 1.7 4.2.5 1.2.9 2.3 1.3 3.4.3.7.5 1.4.8 2.1.6 1.7 1.3 3.4 1.9 5.1v.1l.6 1.8c.7 2 1.3 3.9 2 5.8.1.4.3.9.4 1.3.8 2.3 1.5 4.7 2.1 7 .7 2.2 1.3 4.4 1.9 6.6.2.8.4 1.7.7 2.5.7 2.5 1.3 5 1.8 7.5l.4 1.7c.1.6.3 1.1.4 1.7.2 1.1.5 2.2.7 3.3.2 1.2.5 2.3.7 3.5.1.6.2 1.1.3 1.7.7 3.9 1.3 7.7 1.8 11.4.2 1.6.4 3.2.6 4.7.1 1 .2 2.1.3 3.1 0 .5.1 1 .2 1.5.2 1.6.3 3.2.4 4.8 0 .4.1.8.1 1.2.2 2.5.3 4.9.4 7.2v1.4c0 .9.1 1.8.1 2.7v8.1c0 1.3-.1 2.6-.1 3.9v1.3c0 .4 0 .8-.1 1.2 0 .8-.1 1.7-.1 2.5 0 .4-.1.8-.1 1.2-.1.8-.1 1.6-.2 2.4s-.1 1.6-.2 2.3-.1 1.5-.2 2.3c0 .4-.1.8-.1 1.2-.1 1.4-.3 2.9-.5 4.2l-.3 2.1-.3 2.1c-.1.7-.2 1.3-.3 2-1 6.1-2.1 11.4-3.3 15.9-.1.4-.2.7-.3 1-77.8-16.1-111.8-88.4-125.8-126.5-12.1-32.9-31.5-28.1-43.3-53.1-9.8-20.9 0-36.1-16.7-58.9-15.6-21.3-43.2-25.6-43.2-25.6s75.2-40.3 127.9-63.8z" fill="#5b2448" />
      <path d="M192.5 1707.3c-.7 0-1.4-.2-1.9-.7-19.7-16.3-27.8-17.6-44-20.3-4.4-.7-9.3-1.5-15.2-2.7-28.2-5.9-39.8-20.7-40.2-21.3-1-1.3-.7-3.2.6-4.2s3.2-.7 4.2.6c.2.2 10.9 13.7 36.7 19.1 5.7 1.2 10.6 2 14.9 2.7 16.7 2.7 26 4.3 46.9 21.6 1.3 1.1 1.5 2.9.4 4.2-.7.6-1.5 1-2.4 1z" fill="#fff" />
      <path d="M284.6 1942.2c-.2 0-.4 0-.7-.1-34.4-7.2-64.1-26-88.1-55.9-15.6-19.5-28.9-43.8-39.4-72.2-6.4-17.3-14.9-23.8-23.2-30.1-7.1-5.4-14.4-11-20-22.8-4.4-9.3-5-17.5-5.7-25.5-.8-10.5-1.6-20.4-10.8-32.9-14.7-20.1-40.5-23.1-40.8-23.1-1.4-.2-2.3-1.4-2.2-2.8.2-1.3 1.4-2.3 2.7-2.2 1.1.1 28.3 3.2 44.3 25.1 10 13.7 10.9 24.8 11.7 35.5.6 7.8 1.2 15.3 5.2 23.8 5.1 10.8 11.6 15.7 18.5 21 8.8 6.7 18 13.7 24.9 32.3 10.3 27.9 23.3 51.7 38.6 70.8 23.3 29 52 47.2 85.4 54.1 1.4.3 2.2 1.6 2 2.9-.1 1.3-1.2 2.1-2.4 2.1z" fill="#5b2448" />
      <path d="M77.6 1753.5c-2.4 0-4.8-.4-7.1-1.1-6.7-2-13.5-6.4-19.2-12.6-12.3-13.2-15.6-29.5-7.5-37.1 4.1-3.8 10.2-4.7 17.4-2.6 6.7 2 13.5 6.4 19.2 12.6 12.3 13.2 15.6 29.5 7.5 37.1-2.8 2.5-6.5 3.9-10.3 3.7zM54.1 1704c-2.5-.1-5 .7-6.9 2.4-5.9 5.5-2.4 19.3 7.7 30.1 5.1 5.5 11.2 9.4 17 11.2 5.4 1.6 9.8 1.1 12.5-1.5 5.9-5.5 2.4-19.3-7.7-30.1-5.1-5.5-11.2-9.4-17-11.2-1.8-.6-3.7-.9-5.6-.9z" fill="#6d2a53" />
      <path d="M275.9 1958.6c-27.4 0-51.8-16.8-67.8-31.3C152.7 1877.2 2.2 1709.7.6 1708.1c-.9-1-.8-2.6.2-3.5.1-.1.2-.2.3-.2 57.7-37.2 177.6-93.8 178.8-94.4s2.7-.1 3.3 1.2.1 2.7-1.2 3.3c-1.2.6-117.4 55.4-175.7 92.5 18 19.9 153.4 169.9 205.1 216.7 15.6 14.1 39.6 30.6 66 30 3.8-9.1 22-58.7 0-133.5-.2-.7-.4-1.5-.7-2.4-8.5-30-23.1-57.9-42.9-81.9-.8-1.1-.6-2.7.5-3.5s2.5-.6 3.4.4c30.7 38.3 39.9 70.1 43.8 83.7.2.9.5 1.6.7 2.4 23.3 79.4 2.2 131.4-.6 137.8 0 0 0 .1-.1.1-.1.1-.1.2-.2.3l-.1.1c-.4.8-1.2 1.4-2.1 1.4h-3.2z" fill="#5b2448" />
      <path d="M265.6 1780.1c-1.3 0-2.7-.4-3.8-1.1-35.8-21.3-72-10.7-72.3-10.6-4 1.2-8.1-1.1-9.3-5s1-8.1 5-9.3c1.7-.5 42.7-12.7 84.4 12.1 3.6 2.1 4.7 6.7 2.6 10.3-1.5 2.2-3.9 3.6-6.6 3.6zm13.3 35.6c-1.5 0-2.9-.4-4.2-1.3-34.7-23.3-71.7-13.2-72-13-4 1.1-8.1-1.2-9.2-5.2-1.1-3.9 1.2-8 5.1-9.2 1.8-.5 43.8-12.3 84.5 15 3.4 2.3 4.4 7 2.1 10.4-1.5 2-3.8 3.3-6.3 3.3zm9.7 35.2c-1.5 0-3-.5-4.2-1.3-30.9-21.2-62.8-13.3-63.1-13.3-4 1.1-8.1-1.3-9.2-5.3s1.3-8.1 5.3-9.2c1.6-.4 38.7-9.9 75.4 15.4 3.4 2.3 4.3 7 1.9 10.4-1.4 2.1-3.7 3.3-6.1 3.3z" fill="#ffcf2d" />
      <path d="M607.3 973s-24.4 243.3-124.8 304c-107.9 65.4-273.3 88.1-311 120.8 5-3 48.5-20.8 69.3 51.5 22.1 76.9 6.9 147.6 115.9 222.8 78.2-40.6 243.6-154.5 317.9-234.7 0 0-166.4 228.8-176.3 273.3 4-11.9 26.5-31.2 78.2 9.9 72.3 57.4 147.6 90.1 233.7 87.1 71.3-169.3 116.9-388.2 170.3-800.2-63.2-30.6-264.3-77.3-373.2-34.5z" fill="#21a0aa" />
      <path d="M585.5 1232.3c1.4-.2 2.3-1.5 2-2.9-.2-1.4-1.5-2.3-2.9-2-22.7 4.4-55.2 19.5-80 32.3-6.9 6.8-14.3 12.6-22.1 17.3-3.8 2.3-7.8 4.6-11.8 6.8.2-.1.4-.2.7-.3.7-.4 74.4-43.4 114.1-51.2zm325.3-166.1c.5-1.3-.2-2.7-1.4-3.2-1.3-.6-2.8 0-3.3 1.3-.3.6-23.2 57.4-68.5 137.6-35 62-89.8 149-163.1 235.6-.9 1.3-12.6 17.4-29.5 41.2 90.5-98.8 156.8-203.1 197.1-274.4 45.5-80.5 68.5-137.5 68.7-138.1z" fill="#6ce0dc" />
      <path d="m749.9 1036.9-18.8-.6s-13.9-64.4-8.9-108.9c.7-6.6 24.8-5 24.8-5z" fill="#5b2448" />
      <path d="M783.6 285.7s110.9 48.5 143.4 28.1c16 15.4 223.9 266.9 96.3 804.7 0 0-25.7-51.5-273.4-81.6-2.9-30.3-6.9-64-10.9-87.7-8.9 13.9-31.3 65.3-41.6 85.2-40.1-1.1-112.9-10.9-130.7 4 0-86.2 19.8-557.6 216.9-752.7z" fill="#f94f46" />
      <path d="M1079.1 48.4c-10.5-8.9-24.5-12.2-37.8-8.9-2.8-44.9-59.9-51-75.1-21.1-31.2-38.5-88.5-7.1-81.3 31.7 2.6 14.2 6.4 38.7-4.7 59 16.6 13 39.7 72 39.7 72s85.5-72.8 119.4-67.7c53.2 8.2 61.8-45.5 39.8-65z" fill="#5b2448" />
      <circle cx="971.2" cy="476.3" fill="#fcb6b1" r="4.5" />
      <circle cx="955.4" cy="425.8" fill="#fcb6b1" r="4.5" />
      <path d="M987 502.1c-.2-1.3-1.4-2.3-2.8-2.1-12.2 1.7-14.7-1.3-30.9-54.8-8.2-26.8-19.3-56.1-26.2-73.8 12.3 16.3 29.6 35.5 43.5 36.6 5.4.4 8-1.9 9.2-3.9 1.1-1.8 1.5-4.2 1.3-7.1-6.6-13-13-24.4-19-34.3 1.4 2.4 2.8 5 4.1 7.6 11.6 22.7 10.3 29.5 9.2 31.4-.3.5-1.1 1.8-4.5 1.5-8.7-.7-21-10.7-35.6-28.9-7.1-9.1-13.8-18.5-19.9-28.3-.6-1-1.8-1.5-2.9-1.1-1.3.4-2 1.8-1.6 3.1 8.2 25.8 16.6 69 4.2 75.2-2.6 1.3-9.9.6-29.1-18.8-13.3-13.5-28.1-31.6-40-46.2-8.4-10.3-15.6-19.2-20.1-23.7-.1-.1-.2-.1-.3-.2-21.6-24-44.3-32.9-54.4-35.8-1.3 1.4-2.5 2.8-3.8 4.2 7.6 2 31.8 9.8 54.5 34.9.1.2.2.3.3.4l.6.6c1.7 1.9 3.4 3.9 5.1 6.1C846.6 368 863.7 411.2 875 463c13.9 63.7 18.6 137.2 13.6 212.8-.1 1.4.9 2.6 2.3 2.7h.2c1.3 0 2.4-1.1 2.3-2.4 5.1-76 .3-150.1-13.7-214.2-7.9-36-18.5-67.9-30.5-92.1 27.1 32.8 50.4 58.7 64.1 58.7 1.4 0 2.8-.3 4.2-.9 12.1-6.1 10-31.2 5.8-52.1 7 17.7 17.5 45.5 25.2 71.2 14.2 46.7 18.3 58.7 32.1 58.7 1.4-.1 2.9-.2 4.3-.5 1.3-.2 2.3-1.4 2.1-2.8z" fill="#fcb6b1" />
      <path d="M1015.9 50.3c-.4.4-.6 1-.6 1.6 0 1.4 1.1 2.5 2.5 2.5.7 0 1.4-.4 1.9-.8 17.6-20.1 38.7-14.3 39.6-14 .7.2 1.3.1 1.9-.2-6.5-1.5-13.3-1.5-19.9.1-.1-1.6-.3-3.2-.5-4.7-7.7 1.8-16.7 6.1-24.9 15.5z" fill="#9b3c82" />
      <path d="M1058.3 250c-1.6 11.8-10.4 22.6-24.1 26.7-35.7 10.9-75.3-7.9-75.3-7.9s-31.8 31.8-45.6 78.2c0 0-42.6-9.9-129.7-61.4 0 0 46.5-56.4 78.5-94-21.8-7.9-41.8-36-29.7-65.2 6.9-16.6 28-24.4 45.2-17.7 17.7 6.9 26.5 24.6 37.3 43 12.2 20.8 20.1 7.4 30.4-9.4 6.6-10.8 14.2-23 24.6-28.4 23.4-12.3 69.3-.4 69.3-.4s-1.1 6.1-1.9 13.8c-1.1 10.2-1.8 23.4 1.2 29.2 5.1 10.3 12.4 10.2 11.4 16-.8 5-7.6 9.8-11.4 11.8-4.9 34.3 23.5 38.1 19.8 65.7z" fill="#f4ada2" />
      <path d="M892.6 200.5c1.3-.2 2.2-1.5 2-2.9-.2-1.3-1.5-2.2-2.9-2-11.2 2-23.5-1.6-29.9-3.9-1.1 1.3-2.2 2.7-3.4 4 5 2 15.3 5.4 26.2 5.4 2.7 0 5.4-.2 8-.6z" fill="#9b3c82" />
      <path d="M925.1 232.9c-6.2 2.1-18.7 34.9 8.4 55.9 2.2 1.7 4.3 3.1 6.1 4.1 10.4-15.2 19.3-24.1 19.3-24.1s-23.8-13.9-33.8-35.9zm46.5-107.2.5-1.9c.2-.6.3-1.1.5-1.7.4-1.1.9-2.1 1.4-3.1 1.1-2 2.4-3.9 3.9-5.6 3.2-3.6 7.2-6.4 11.6-8.2 2.3-.9 4.8-1.6 7.3-1.8 2.5-.3 5.1-.2 7.6.3s4.8 1.4 7 2.7c2.1 1.2 4 2.9 5.4 4.9 1.9 2.6 1.2 6.2-1.4 8.1-.5.3-1 .6-1.5.8l-1 .3c-2 .6-3.6 1-5.2 1.4-1.5.4-2.8.8-4 1.1l-6.9 2.1c-2.3.7-4.9 1.7-7.7 2.8l-4.5 1.8-2.4.9c-.4.2-.8.3-1.3.5-.4.2-.8.3-1.2.3l-4-.2c-2.5-.1-4.4-2.2-4.3-4.7.1-.2.2-.5.2-.8zm19.6 21.6c5.4-.9 18.4-2.9 30.6-8.6 1.7-.8 3.7-.1 4.5 1.6 2 4.4 4 12.2-4.8 14.9-10.8 3.4-27.9-.6-31.5-5.3-.6-.8-.4-1.9.4-2.4.3 0 .5-.1.8-.2z" fill="#5b2448" />
      <circle cx="957.8" cy="191.4" fill="#e57281" opacity=".52" r="22.8" />
      <path d="M1023.2 213.9c-1.8 1.2-3.8 1.9-5.9 2.2-2 .3-4.1.3-6.2 0-6.3-.8-11.9-4.5-15.2-10-1.1-1.8-1.9-3.8-2.4-5.8-1-4.1-.6-8.4 1.3-12.2.6-1.1 1.9-1.5 3-.9.9.5 1.3 1.4 1.2 2.4v.1c-.8 4.4.2 9 2.7 12.7.8 1.2 1.8 2.3 2.8 3.3 2.3 1.9 4.9 3.3 7.8 4 2.9.8 5.9.9 8.8.1h.1c1.2-.3 2.4.3 2.8 1.5.3 1 0 2-.8 2.6zM888.7 170c-1.3 0-2.4-1-2.5-2.3-2.7-31.3-27.3-35.1-28.3-35.3-1.4-.2-2.3-1.4-2.1-2.8s1.4-2.3 2.8-2.1c.3 0 29.6 4.4 32.6 39.8.1 1.4-.9 2.6-2.3 2.7s-.1 0-.2 0z" fill="#9b3c82" />
      <path d="M1097.5 511.5c-16.8 19.4-45.6 77.2-46.5 110.9-1.1 38.7 83.2-3 122.8-65.4 38.6-60.8 28.7-135.7 101-167.4 0 .1-78.3 7-177.3 121.9z" fill="#5b2448" />
      <path d="M1406.5 557c-27.6 32.4-78 61.7-124.7 84.1-1.6.8-3.1 1.5-4.7 2.2-1.2.6-2.3 1.1-3.5 1.7-12.8 6-25.1 11.6-36.4 16.5-1.6.7-3.1 1.4-4.6 2-1.2.5-2.3 1-3.5 1.5-16.5 7.3-30.1 13.2-38.5 17.6 0 0 2.2 5.8-5 12.9-11.3 11.2-42.6 26.7-58.4 20.8-8.9 1-24.8-4-30.7-9.9-6.9-1-21.8-9.9-28.7-20.8-20.8-9.9-27.7-34.3-20.1-56.5.9-2.5 1.9-4.9 3.2-7.2 0 0 0-.1.1-.1v-.1c7-12.9 20.1-23.6 34.9-32.3 2.6-1.5 5.2-3 7.9-4.4 25.7-13.5 54.2-21.4 64.8-24.1.7-.2 1.3-.3 1.8-.5 1.3-.3 2.1-.5 2.3-.5h.1-.1c-.2 0-1 0-2.1.1h-.8c-7.4.2-31.7.5-55.9-1.4-10.2-.7-20.4-2.1-30.5-4-.6-.1-1.2-.2-1.8-.4-1.7-.4-3.3-.8-4.9-1.2-.2-.1-.4-.1-.6-.2-32.3-10.4 54.2-137.8 203.8-162.5 1.6-.3 3.1-.5 4.7-.7h.1c93.2 34.7 183.3 107 131.8 167.4z" fill="#f4ada2" />
      <g fill="#9b3c82">
        <path d="M1274.8 389.7s-123.8 54.5-170.7 169c-16.4-.6-27.3-1.6-38.2-3.6-.1-.1 15.8-119.9 208.9-165.4zm14.3 77.5c-53.2 25-84.6 61.4-109.8 90.7-.4.4-.6 1-.6 1.6 0 1.4 1.1 2.5 2.5 2.5.7 0 1.4-.3 2-.8 24.9-28.9 55.9-64.9 108.1-89.5h.1c1.2-.7 1.8-2.2 1.1-3.4s-2.2-1.7-3.4-1.1zm-148.4 229.3c-.4.4-.6 1-.6 1.6 0 1.4 1.1 2.5 2.5 2.5.7 0 1.4-.3 1.9-.9 9.5-11 27-15.3 46-11.7.7-2.7.3-4.5.1-5-20.4-3.7-39.5 1.3-49.9 13.5zm-26.1 4.3c-1.7-5.9-4-21.5 10.9-37.7 1-1 .9-2.6-.1-3.5-1-1-2.6-.9-3.5.1-11.7 12.7-16 28.2-12 42.5 1.5 5.4 4.2 10.2 7.5 13.7 3.6.7 7 1 9.8.6.3.1.5.2.8.3-.2-.2-.4-.3-.7-.4-5.5-1.6-10.5-7.7-12.7-15.6zm-30.1-19.5c-.5-12.2 4.2-24.8 12.3-32.9.9-1 .9-2.5 0-3.5s-2.5-1.1-3.5-.1c-9.1 9-14.3 23.1-13.8 36.6.2 5.9 1.6 13.6 6.2 20.8 3.8 2.2 7.4 3.7 10 4.3-8.7-8-10.9-18.1-11.2-25.2zm-11.4-49.9c1-1 .9-2.5-.1-3.5s-2.6-.9-3.5.1c-16.7 17.6-17 37.1-10.6 52 2.6 2.2 5.5 4.2 8.8 5.7-9.4-13.9-12.7-35.2 5.4-54.3z" />
      </g>
      <path d="M1274.8 389.7C1096.5 454 1050 593.7 1051 622.4c-22.9-140.8-70.4-233-99.9-277.2 116.7-43.7 323.7 44.5 323.7 44.5z" fill="#f94f46" />
      <path d="m955.3 343.7-4.2 1.5c29.5 44.2 77 136.4 99.9 277.2-.1-3.3.5-8 2-13.9-2.6-16.3-7.5-42-15.8-73.1C1024 486 999 412.7 955.3 343.7z" fill="#fcb6b1" />
      <path d="M1273.6 645.1c-12.8 6-25.1 11.6-36.4 16.5-1.6.7-3.1 1.4-4.6 2-1.2.5-2.3 1-3.5 1.5-5.7-15.5-14.2-31.1-23.4-45.2-2.4-3.7-4.8-7.3-7.2-10.7-10-14.3-20.9-28-32.5-41-2.3-2.5-3.6-3.9-3.6-3.9l1.4-.8 8.5-4.3 30.1-15.1s5.4 5.1 13.5 14c6.6 7.2 14.9 17 23.5 28.5 2.1 2.9 4.3 5.8 6.4 8.9 10.2 14.7 20.2 31.6 27.8 49.6z" fill="#5b2448" />
      <path d="m1162.4 564.4.2.2c.1-.1.1-.3.2-.4zm86.1 35.2c-1-1.5-2-2.9-3-4.4-5.7 8.5-14.1 15.5-24.3 19.8-5.2 2.2-10.6 3.6-15.9 4.3 1 1.5 1.9 3 2.9 4.5 5.1-.8 10.2-2.2 15-4.3 10.4-4.4 19.1-11.4 25.3-19.9z" fill="#fff" />
      <ellipse cx="1204.6" cy="577.3" fill="#5b2448" rx="50.1" ry="41.8" transform="matrix(.9195 -.3931 .3931 .9195 -129.9528 520.0093)" />
      <ellipse cx="1201.5" cy="571.4" fill="#fff" rx="48.6" ry="36.1" transform="matrix(.9195 -.3931 .3931 .9195 -127.8773 518.3113)" />
      <path d="M1210.5 588c-.8 0-1.6-.4-2-1l-12.6-17.7c-.8-1.1-.5-2.7.6-3.5.1-.1.2-.1.3-.2l26.9-14.4c1.2-.7 2.7-.2 3.4 1s.2 2.7-1 3.4l-24.4 13 11 15.4c.8 1.1.5 2.7-.6 3.5-.6.4-1.1.5-1.6.5zm-555.7 81.9c-21 3.3-102 13.9-107.9 44.6-4.9 25.4 110.9 55.5 342.6-39.6 0 0-107.9-24.8-234.7-5z" fill="#5b2448" />
      <path d="M1276.8 1002.7c-7.8 1.8-15.8 2.5-23.8 2 4 31.7-10.9 40.6-10.9 40.6-5 14.9-22.8 23.8-22.8 23.8-8.9 20.8-27.7 24.8-27.7 24.8-15.8 19.8-56.4 6.9-72.3-9.9-10.6-11.3-13.9-22.8-14.2-30.1-6.6-6.5-20.4-17.4-41.5-25.7-49.7-19.4-115.6-24.5-286-54.2-124.7-21.8-151.2-173.6-156.5-253.3-1.2-16.2-1.5-32.5-1-48.7 23.7-7.3 48.1-12.4 72.7-15.2 107.9-12.5 196.6 18.1 196.6 18.1-1.5 39.1-13.9 118.8-13.9 118.8 77.2 13.9 304 139.1 318.9 148.5 18.8 11.9 45.6 27.7 79.2 40.6 18 6.9 18.1 16.4 3.2 19.9z" fill="#f4ada2" />
      <path d="M889.5 674.9s-163.4-3-268.4 45.7c-1.2-16.2-1.5-32.5-1-48.7 23.7-7.3 48.1-12.4 72.7-15.2 100.7-11.5 196.7 18.2 196.7 18.2z" fill="#9b3c82" />
      <path d="M769.7 302.5c-46-16.3-168.8 46-222.8 411 7.4-30.2 136.7-67.3 342.6-38.6 0 0 22.8-321.9-119.8-372.4z" fill="#f94f46" />
      <path d="M823.2 785.1c-.1 1.4 1 2.5 2.4 2.6 16.8.7 33.6 2.6 50.1 5.8.1-.6.4-2.3.8-4.9-16.7-3.2-33.6-5.2-50.7-5.9-1.4-.1-2.5 1-2.6 2.4zm337 301.8h.2c1.3 0 2.4-1 2.5-2.3.2-1.3-.8-2.6-2.2-2.7-18.4-1.8-26-7.6-35.6-14.9-6.2-5-12.9-9.4-20-13.1.1 1.8.3 3.9.8 6.2 5.7 3.2 11.1 6.8 16.2 10.9 9.8 7.5 18.3 14 38.1 15.9zm20.7-46c-1-.9-2.6-.8-3.5.2s-.8 2.6.2 3.5c28.5 25.1 17.1 45.2 14.2 49.3.7-.2 3.4-.9 7-2.7 3.9-9.7 6.6-28.7-17.9-50.3zm27.9-22.6c-1-.9-2.5-.9-3.5 0s-1.1 2.5-.1 3.5c13.3 13.3 19.1 32.7 14.2 47.2.6-.3 3.1-1.6 6.3-3.9 2.7-15.4-3.6-33.5-16.9-46.8zm19.4-18c-1.1.9-1.3 2.4-.4 3.5 4.2 5.1 16.7 22.3 14.3 41.5.2-.1 2.7-1.7 5.3-5.6-.3-18.4-11.7-34-15.7-38.9-.9-1.2-2.4-1.4-3.5-.5zm-.1-38.4c16.3 12 22.2 29.2 24.9 42.8 1.7.1 3.4.1 5.1.1-2.1-10.7-6-23.8-14.9-35.2-5.3-2.5-10.3-5.1-15.1-7.7z" fill="#9b3c82" />
    </svg>
  </g>
  <g transform="translate(731.0 -222.0) rotate(-89.99999999999997 168.0 508.5) translate(0.0 396.0548337581652) scale(0.43855985297803024 0.4396172520161011)">
    <svg width="766.144" height="1412.468" viewBox="0 900.908 766.144 1412.468">
      <path d="M579.644 113.586v150.29q-6.135-10.35-12.5-19.661c-95.39-139.719-228.86-109.569-349.5-47.339C106 254.465 27.454 224.976 2.1 212.026a3.873 3.873 0 0 1 .91-7.22c129.09-29.79 133.671-72.111 257.63-160.93 120.231-86.15 230.59-33.391 306.5 54.53q6.424 7.44 12.504 15.18z" fill="#f94f46" />
      <g fill="#ffcf2d">
        <path d="M579.644 113.586v150.29q-6.135-10.35-12.5-19.661V98.406q6.42 7.44 12.5 15.18z" />
        <path d="M766.144 2300.876a12.5 12.5 0 0 1-12.5 12.5h-348a12.5 12.5 0 0 1 0-25h161.5V244.215q6.375 9.315 12.5 19.661v-150.29q-6.075-7.742-12.5-15.18v-72.53a12.5 12.5 0 1 1 25 0v2262.5h161.5a12.5 12.5 0 0 1 12.5 12.5z" />
      </g>
    </svg>
  </g>
</svg>